<svg width="20" height="20" viewBox="0 0 20 20" fill="none" xmlns="http://www.w3.org/2000/svg">
<path fill-rule="evenodd" clip-rule="evenodd" d="M18.8733 2.65408H13.9278V1.27227C13.9278 0.61772 13.3824 0.0722656 12.7278 0.0722656H6.90966C6.25511 0.0722656 5.70966 0.61772 5.70966 1.27227V2.65408H0.764205C0.473295 2.65408 0.21875 2.90863 0.21875 3.19954C0.21875 3.49045 0.473295 3.74499 0.764205 3.74499H2.21875L3.89148 17.0177C4.03693 18.6177 5.38239 19.8904 7.01875 19.8904H12.6187C14.2188 19.8904 15.6006 18.6177 15.746 17.0541L17.4188 3.74499H18.8733C19.1642 3.74499 19.4188 3.49045 19.4188 3.19954C19.4188 2.90863 19.1642 2.65408 18.8733 2.65408ZM6.80057 1.27227C6.80057 1.19954 6.83693 1.16317 6.90966 1.16317H12.7278C12.8006 1.16317 12.8369 1.19954 12.8369 1.27227V2.65408H6.80057V1.27227ZM12.6187 18.7995C13.6733 18.7995 14.5824 17.9995 14.6551 16.945L16.2915 3.74499H3.30966L4.98239 16.9086C5.05511 17.9632 5.9642 18.7995 7.01875 18.7995H12.6187ZM6.03693 7.12681C6.03693 6.8359 6.25511 6.58136 6.54602 6.54499C6.83693 6.50863 7.09148 6.76318 7.12784 7.05408L7.78239 15.4541C7.78239 15.745 7.5642 15.9995 7.2733 16.0359H7.23693C6.94602 16.0359 6.72784 15.8177 6.69148 15.5268L6.03693 7.12681ZM9.2733 7.09045C9.2733 6.79954 9.52784 6.54499 9.81875 6.54499C10.1097 6.54499 10.3642 6.79954 10.3642 7.09045V15.4904C10.3642 15.7814 10.1097 16.0359 9.81875 16.0359C9.52784 16.0359 9.2733 15.7814 9.2733 15.4904V7.09045ZM11.8551 15.4541L12.5097 7.05408C12.546 6.76318 12.8006 6.50863 13.0915 6.54499C13.3824 6.58136 13.6369 6.8359 13.6006 7.12681L12.946 15.5268C12.9097 15.8177 12.6915 16.0359 12.4006 16.0359H12.3642C12.0733 15.9995 11.8188 15.745 11.8551 15.4541Z" fill="#E92222"/>
</svg>
